<svg xmlns="http://www.w3.org/2000/svg" viewBox="0 0 24 24" fill="currentColor"><g transform="translate(0.000000,24.000000) scale(0.005000,-0.005000)"><path d="M2162 4373 c-34 -19 -158 -133 -376 -348 -284 -280 -329 -328 -353
-380 -65 -143 -14 -302 123 -385 56 -34 62 -35 162 -36 103 0 103 0 232 -129
72 -72 130 -132 130 -135 0 -5 -835 -840 -1301 -1301 -211 -208 -224 -229
-224 -364 0 -71 5 -100 22 -137 83 -181 314 -250 482 -144 38 25 202 194 561
581 118 127 365 391 549 588 l334 358 109 -108 c108 -108 108 -108 101 -153
-44 -266 220 -466 442 -335 71 42 691 673 715 728 97 219 -107 472 -336 419
-42 -9 -42 -9 -494 443 -453 453 -453 453 -454 556 -1 111 -13 149 -71 217
-75 89 -249 121 -353 65z m209 -192 c28 -28 31 -37 31 -81 0 -11 0 -28 -1 -37
-1 -20 -594 -618 -633 -639 -80 -42 -168 10 -168 99 0 51 0 51 308 360 169
170 316 313 327 317 46 20 105 11 136 -19z m529 -776 l435 -435 -250 -250
-250 -250 -433 433 c-237 237 -432 437 -432 442 0 10 480 495 490 495 2 0 201
-196 440 -435z m772 -534 c22 -25 28 -41 28 -78 0 -48 0 -48 -323 -370 -309
-310 -324 -323 -360 -323 -79 0 -117 38 -117 117 0 48 0 48 324 372 324 324
324 324 372 318 38 -4 55 -12 76 -36z m-1380 -118 c38 -37 68 -73 68 -80 0 -7
-51 -66 -112 -131 -62 -64 -331 -350 -597 -635 -547 -585 -473 -538 -618 -390
l-63 63 623 620 c342 341 624 619 627 620 2 0 35 -30 72 -67z m-1358 -1410
c95 -98 95 -98 59 -135 -61 -63 -138 -73 -197 -27 -51 40 -72 120 -45 172 14
26 70 87 81 87 4 0 50 -44 102 -97z M2363 1069 c-83 -26 -160 -96 -199 -181
-28 -60 -29 -71 -32 -226 -4 -185 -1 -204 35 -238 26 -24 26 -24 1019 -24 717
0 1000 3 1018 11 42 20 48 52 44 251 -3 170 -5 186 -27 233 -33 66 -100 131
-169 163 -57 27 -57 27 -842 29 -757 2 -787 1 -847 -18z m1634 -195 c52 -39
67 -79 71 -186 l4 -98 -876 0 -876 0 0 93 c0 115 20 166 77 196 61 32 1556 28
1600 -5z"/></g></svg>
