<svg xmlns="http://www.w3.org/2000/svg" viewBox="0 0 24 24" fill="currentColor"><g transform="translate(0.000000,24.000000) scale(0.005000,-0.005000)"><path d="M2304 4301 c-22 -10 -57 -35 -76 -55 -41 -42 -44 -50 -263 -718
l-147 -447 -622 -3 c-619 -3 -621 -3 -662 -25 -116 -62 -166 -206 -113 -323
32 -72 20 -61 414 -346 66 -47 143 -103 170 -124 28 -20 136 -99 240 -175 105
-75 191 -139 193 -140 5 -5 -6 -39 -202 -640 -102 -313 -186 -582 -186 -599 0
-118 105 -225 223 -226 77 0 91 8 312 170 50 37 167 122 260 190 94 68 211
154 260 190 246 181 289 210 302 206 13 -5 103 -70 366 -263 62 -45 188 -137
281 -205 93 -68 208 -151 255 -186 110 -81 154 -102 216 -102 119 0 225 106
225 226 0 16 -88 300 -196 632 -108 332 -195 604 -193 606 2 2 90 66 194 141
105 76 213 155 240 175 59 44 235 172 390 283 142 102 163 122 191 182 57 120
9 265 -110 328 -41 22 -43 22 -662 25 l-621 3 -63 192 c-245 745 -308 926
-334 960 -60 78 -190 110 -282 68z m113 -203 c4 -7 83 -238 174 -513 l165
-500 -178 -3 c-98 -1 -258 -1 -356 0 l-178 3 157 475 c191 579 190 578 216
538z m-773 -1545 c-57 -175 -109 -335 -116 -355 -14 -48 -10 -49 -104 20 -43
32 -171 125 -284 207 -113 81 -245 178 -295 215 -49 36 -120 88 -156 113 -73
51 -84 68 -69 98 10 18 28 19 569 19 l559 0 -104 -317z m1319 -101 c75 -229
137 -422 137 -428 0 -6 -21 -26 -47 -44 -27 -19 -104 -75 -173 -125 -362 -265
-466 -339 -480 -339 -8 0 -76 44 -150 99 -282 206 -388 283 -467 340 -46 32
-83 63 -83 68 0 6 62 198 137 429 l137 418 426 0 426 0 137 -418z m1217 397
c9 -15 8 -25 -2 -39 -13 -19 -875 -650 -888 -650 -6 0 -230 679 -230 699 0 8
153 11 555 11 551 0 554 0 565 -21z m-2459 -1111 c48 -35 149 -108 225 -164
77 -55 167 -120 201 -145 34 -24 61 -48 59 -54 -2 -9 -274 -211 -641 -476 -60
-44 -147 -106 -193 -139 -79 -58 -102 -69 -102 -52 0 4 52 168 116 363 64 194
143 438 177 542 33 103 63 187 66 187 4 0 45 -28 92 -62z m1632 -480 c98 -299
177 -546 177 -550 0 -21 -68 21 -200 122 -19 15 -107 79 -195 143 -392 285
-539 394 -541 403 -3 8 562 424 576 424 4 0 86 -244 183 -542z"/></g></svg>
