<svg xmlns="http://www.w3.org/2000/svg" viewBox="0 0 24 24" fill="currentColor"><g transform="translate(0.000000,24.000000) scale(0.005000,-0.005000)"><path d="M2175 4390 c-752 -83 -1444 -656 -1680 -1390 -350 -1092 300 -2262
1410 -2539 229 -57 601 -77 795 -43 854 152 1489 753 1659 1572 274 1315 -847
2547 -2184 2400z m448 -245 c647 -98 1178 -520 1420 -1130 331 -834 -62 -1814
-887 -2210 -834 -399 -1828 -82 -2289 730 -219 386 -283 865 -173 1287 224
857 1088 1449 1929 1323z M2275 3808 c-133 -25 -301 -144 -370 -263 -173 -294
-67 -663 233 -813 347 -173 769 34 832 409 69 409 -282 745 -695 667z m234
-227 c258 -80 331 -405 135 -591 -81 -76 -129 -95 -244 -95 -115 0 -163 19
-244 95 -274 259 -8 703 353 591z M2216 2564 c-273 -42 -525 -171 -714 -365
-217 -223 -352 -537 -352 -818 0 -75 34 -120 96 -128 84 -11 134 49 134 160 1
276 183 592 441 768 294 200 691 231 1012 81 345 -162 559 -470 586 -846 8
-98 8 -99 45 -134 51 -46 115 -43 159 10 29 33 29 33 23 138 -39 706 -719
1245 -1430 1134z"/></g></svg>
